<svg id="visual" viewBox="0 0 960 540" width="960" height="540" xmlns="http://www.w3.org/2000/svg" xmlns:xlink="http://www.w3.org/1999/xlink" version="1.1"><g stroke-width="1" stroke-linejoin="bevel"><path d="M405.7 253L317 359L427.7 340Z" fill="#006f1e" stroke="#006f1e"></path><path d="M405.7 253L303 234L317 359Z" fill="#04481a" stroke="#04481a"></path><path d="M303 234L248.3 335L317 359Z" fill="#01591d" stroke="#01591d"></path><path d="M325 472L393.7 446L317 359Z" fill="#00731e" stroke="#00731e"></path><path d="M317 359L393.7 446L427.7 340Z" fill="#00731e" stroke="#00731e"></path><path d="M405.7 253L337 169L303 234Z" fill="#04481a" stroke="#04481a"></path><path d="M303 234L210.3 230L248.3 335Z" fill="#00661e" stroke="#00661e"></path><path d="M226.3 436L325 472L317 359Z" fill="#034c1b" stroke="#034c1b"></path><path d="M190.3 162L210.3 230L303 234Z" fill="#015d1d" stroke="#015d1d"></path><path d="M513.3 176L431.7 141L405.7 253Z" fill="#006a1e" stroke="#006a1e"></path><path d="M405.7 253L431.7 141L337 169Z" fill="#034c1b" stroke="#034c1b"></path><path d="M393.7 446L539.3 364L427.7 340Z" fill="#034c1b" stroke="#034c1b"></path><path d="M427.7 340L564.3 289L405.7 253Z" fill="#015d1d" stroke="#015d1d"></path><path d="M248.3 335L226.3 436L317 359Z" fill="#01591d" stroke="#01591d"></path><path d="M69.7 374L226.3 436L248.3 335Z" fill="#02551c" stroke="#02551c"></path><path d="M564.3 289L513.3 176L405.7 253Z" fill="#006f1e" stroke="#006f1e"></path><path d="M539.3 364L564.3 289L427.7 340Z" fill="#00611d" stroke="#00611d"></path><path d="M431.7 141L329 111L337 169Z" fill="#01591d" stroke="#01591d"></path><path d="M337 169L190.3 162L303 234Z" fill="#00731e" stroke="#00731e"></path><path d="M513.3 176L444.7 108L431.7 141Z" fill="#006f1e" stroke="#006f1e"></path><path d="M431.7 141L444.7 108L329 111Z" fill="#006a1e" stroke="#006a1e"></path><path d="M329 111L190.3 162L337 169Z" fill="#00661e" stroke="#00661e"></path><path d="M210.3 230L107.7 264L248.3 335Z" fill="#04481a" stroke="#04481a"></path><path d="M325 472L391.7 540L393.7 446Z" fill="#00611d" stroke="#00611d"></path><path d="M393.7 446L531.3 472L539.3 364Z" fill="#034c1b" stroke="#034c1b"></path><path d="M223.3 540L352 540L325 472Z" fill="#006a1e" stroke="#006a1e"></path><path d="M352 540L391.7 540L325 472Z" fill="#015d1d" stroke="#015d1d"></path><path d="M503.3 540L531.3 472L393.7 446Z" fill="#006f1e" stroke="#006f1e"></path><path d="M539.3 364L620 361L564.3 289Z" fill="#00661e" stroke="#00661e"></path><path d="M531.3 472L620 361L539.3 364Z" fill="#00661e" stroke="#00661e"></path><path d="M564.3 289L613 214L513.3 176Z" fill="#034c1b" stroke="#034c1b"></path><path d="M620 361L623 270L564.3 289Z" fill="#00611d" stroke="#00611d"></path><path d="M513.3 176L551.3 124L444.7 108Z" fill="#006a1e" stroke="#006a1e"></path><path d="M126.7 201L107.7 264L210.3 230Z" fill="#034c1b" stroke="#034c1b"></path><path d="M190.3 162L126.7 201L210.3 230Z" fill="#03501b" stroke="#03501b"></path><path d="M613 214L551.3 124L513.3 176Z" fill="#015d1d" stroke="#015d1d"></path><path d="M623 270L613 214L564.3 289Z" fill="#00611d" stroke="#00611d"></path><path d="M391.7 540L503.3 540L393.7 446Z" fill="#006f1e" stroke="#006f1e"></path><path d="M531.3 472L640 489L620 361Z" fill="#04481a" stroke="#04481a"></path><path d="M113.7 540L223.3 540L226.3 436Z" fill="#034c1b" stroke="#034c1b"></path><path d="M226.3 436L223.3 540L325 472Z" fill="#03501b" stroke="#03501b"></path><path d="M329 111L219.3 72L190.3 162Z" fill="#015d1d" stroke="#015d1d"></path><path d="M190.3 162L77.7 89L126.7 201Z" fill="#02551c" stroke="#02551c"></path><path d="M327 0L219.3 72L329 111Z" fill="#034c1b" stroke="#034c1b"></path><path d="M327 0L329 111L444.7 108Z" fill="#03501b" stroke="#03501b"></path><path d="M0 294L69.7 374L107.7 264Z" fill="#034c1b" stroke="#034c1b"></path><path d="M107.7 264L69.7 374L248.3 335Z" fill="#04481a" stroke="#04481a"></path><path d="M448.7 0L327 0L444.7 108Z" fill="#006a1e" stroke="#006a1e"></path><path d="M69.7 374L90.7 474L226.3 436Z" fill="#00661e" stroke="#00661e"></path><path d="M526.3 0L448.7 0L444.7 108Z" fill="#006a1e" stroke="#006a1e"></path><path d="M647 540L640 489L531.3 472Z" fill="#006f1e" stroke="#006f1e"></path><path d="M620 361L719.7 331L623 270Z" fill="#03501b" stroke="#03501b"></path><path d="M327 0L230.3 0L219.3 72Z" fill="#006a1e" stroke="#006a1e"></path><path d="M219.3 72L77.7 89L190.3 162Z" fill="#00661e" stroke="#00661e"></path><path d="M90.7 474L113.7 540L226.3 436Z" fill="#03501b" stroke="#03501b"></path><path d="M640 74L526.3 0L551.3 124Z" fill="#006f1e" stroke="#006f1e"></path><path d="M551.3 124L526.3 0L444.7 108Z" fill="#00611d" stroke="#00611d"></path><path d="M726.7 420L719.7 331L620 361Z" fill="#02551c" stroke="#02551c"></path><path d="M741.7 270L711.7 164L613 214Z" fill="#006f1e" stroke="#006f1e"></path><path d="M613 214L640 74L551.3 124Z" fill="#006f1e" stroke="#006f1e"></path><path d="M711.7 164L640 74L613 214Z" fill="#04481a" stroke="#04481a"></path><path d="M67.7 0L77.7 89L219.3 72Z" fill="#01591d" stroke="#01591d"></path><path d="M0 155L0 294L107.7 264Z" fill="#00731e" stroke="#00731e"></path><path d="M503.3 540L647 540L531.3 472Z" fill="#01591d" stroke="#01591d"></path><path d="M640 489L726.7 420L620 361Z" fill="#015d1d" stroke="#015d1d"></path><path d="M0 155L107.7 264L126.7 201Z" fill="#006a1e" stroke="#006a1e"></path><path d="M69.7 374L0 412L90.7 474Z" fill="#00611d" stroke="#00611d"></path><path d="M90.7 474L0 540L113.7 540Z" fill="#006a1e" stroke="#006a1e"></path><path d="M0 294L0 386L69.7 374Z" fill="#015d1d" stroke="#015d1d"></path><path d="M741.7 270L613 214L623 270Z" fill="#00661e" stroke="#00661e"></path><path d="M724.7 540L726.7 420L640 489Z" fill="#006f1e" stroke="#006f1e"></path><path d="M719.7 331L741.7 270L623 270Z" fill="#00611d" stroke="#00611d"></path><path d="M825.3 304L741.7 270L719.7 331Z" fill="#00661e" stroke="#00661e"></path><path d="M0 386L0 412L69.7 374Z" fill="#00731e" stroke="#00731e"></path><path d="M77.7 89L0 155L126.7 201Z" fill="#01591d" stroke="#01591d"></path><path d="M844.3 120L711.7 94L711.7 164Z" fill="#03501b" stroke="#03501b"></path><path d="M711.7 164L711.7 94L640 74Z" fill="#00661e" stroke="#00661e"></path><path d="M640 74L642 0L526.3 0Z" fill="#034c1b" stroke="#034c1b"></path><path d="M711.7 94L642 0L640 74Z" fill="#01591d" stroke="#01591d"></path><path d="M647 540L724.7 540L640 489Z" fill="#015d1d" stroke="#015d1d"></path><path d="M726.7 420L825.3 304L719.7 331Z" fill="#00661e" stroke="#00661e"></path><path d="M230.3 0L67.7 0L219.3 72Z" fill="#006a1e" stroke="#006a1e"></path><path d="M77.7 89L0 81L0 155Z" fill="#015d1d" stroke="#015d1d"></path><path d="M67.7 0L0 81L77.7 89Z" fill="#00611d" stroke="#00611d"></path><path d="M0 412L0 540L90.7 474Z" fill="#034c1b" stroke="#034c1b"></path><path d="M870.3 395L825.3 304L726.7 420Z" fill="#01591d" stroke="#01591d"></path><path d="M741.7 270L844.3 120L711.7 164Z" fill="#015d1d" stroke="#015d1d"></path><path d="M67.7 0L0 0L0 81Z" fill="#00611d" stroke="#00611d"></path><path d="M889.3 434L870.3 395L726.7 420Z" fill="#03501b" stroke="#03501b"></path><path d="M882.3 147L844.3 120L741.7 270Z" fill="#03501b" stroke="#03501b"></path><path d="M711.7 94L785.7 0L642 0Z" fill="#00611d" stroke="#00611d"></path><path d="M882.3 147L741.7 270L825.3 304Z" fill="#015d1d" stroke="#015d1d"></path><path d="M844.3 120L785.7 0L711.7 94Z" fill="#03501b" stroke="#03501b"></path><path d="M870.3 540L889.3 434L726.7 420Z" fill="#04481a" stroke="#04481a"></path><path d="M960 196L882.3 147L825.3 304Z" fill="#04481a" stroke="#04481a"></path><path d="M960 294L825.3 304L870.3 395Z" fill="#034c1b" stroke="#034c1b"></path><path d="M844.3 120L862.3 0L785.7 0Z" fill="#00661e" stroke="#00661e"></path><path d="M724.7 540L870.3 540L726.7 420Z" fill="#00611d" stroke="#00611d"></path><path d="M960 92L862.3 0L844.3 120Z" fill="#015d1d" stroke="#015d1d"></path><path d="M960 359L870.3 395L889.3 434Z" fill="#02551c" stroke="#02551c"></path><path d="M960 359L960 294L870.3 395Z" fill="#006f1e" stroke="#006f1e"></path><path d="M882.3 147L960 92L844.3 120Z" fill="#006a1e" stroke="#006a1e"></path><path d="M960 463L960 359L889.3 434Z" fill="#03501b" stroke="#03501b"></path><path d="M960 294L960 196L825.3 304Z" fill="#034c1b" stroke="#034c1b"></path><path d="M870.3 540L960 463L889.3 434Z" fill="#00661e" stroke="#00661e"></path><path d="M960 196L960 92L882.3 147Z" fill="#01591d" stroke="#01591d"></path><path d="M870.3 540L960 540L960 463Z" fill="#006a1e" stroke="#006a1e"></path><path d="M960 92L960 0L862.3 0Z" fill="#006a1e" stroke="#006a1e"></path></g></svg>